{
  "accessors": [
    {
      "bufferView": 2,
      "componentType": 5126,
      "count": 23607,
      "max": [
        150.43377685546875,
        1.4999999621068127e-05,
        413.2615966796875
      ],
      "min": [
        -14.772274017333984,
        -190.7645263671875,
        380.98602294921875
      ],
      "type": "VEC3"
    },
    {
      "bufferView": 2,
      "byteOffset": 283284,
      "componentType": 5126,
      "count": 23607,
      "max": [
        0.9971609711647034,
        0.99995356798172,
        0.9999971389770508
      ],
      "min": [
        -0.9964627623558044,
        -0.9999000430107117,
        -0.999982476234436
      ],
      "type": "VEC3"
    },
    {
      "bufferView": 1,
      "componentType": 5126,
      "count": 23607,
      "max": [
        0.9118620157241821,
        1.0
      ],
      "min": [
        0.0,
        0.0
      ],
      "type": "VEC2"
    },
    {
      "bufferView": 0,
      "componentType": 5125,
      "count": 117951,
      "type": "SCALAR"
    },
    {
      "bufferView": 2,
      "byteOffset": 566568,
      "componentType": 5126,
      "count": 11910,
      "max": [
        110.1580810546875,
        -26.327301025390625,
        413.9104919433594
      ],
      "min": [
        76.92221069335938,
        -90.28656005859375,
        394.85345458984375
      ],
      "type": "VEC3"
    },
    {
      "bufferView": 2,
      "byteOffset": 709488,
      "componentType": 5126,
      "count": 11910,
      "max": [
        0.9975365996360779,
        0.8835085034370422,
        0.9999915361404419
      ],
      "min": [
        -0.9977732300758362,
        -0.9726300835609436,
        -0.9999865889549255
      ],
      "type": "VEC3"
    },
    {
      "bufferView": 1,
      "byteOffset": 188856,
      "componentType": 5126,
      "count": 11910,
      "max": [
        0.913686990737915,
        0.9988740086555481
      ],
      "min": [
        0.0010809999657794833,
        0.2630839943885803
      ],
      "type": "VEC2"
    },
    {
      "bufferView": 0,
      "byteOffset": 471804,
      "componentType": 5125,
      "count": 69360,
      "type": "SCALAR"
    },
    {
      "bufferView": 2,
      "byteOffset": 852408,
      "componentType": 5126,
      "count": 222,
      "max": [
        109.90878295898438,
        -29.427719116210938,
        412.7703552246094
      ],
      "min": [
        81.94538879394531,
        -57.050498962402344,
        390.6976318359375
      ],
      "type": "VEC3"
    },
    {
      "bufferView": 2,
      "byteOffset": 855072,
      "componentType": 5126,
      "count": 222,
      "max": [
        -0.47163450717926025,
        -0.48951977491378784,
        -0.7319962382316589
      ],
      "min": [
        -0.4720716178417206,
        -0.491673082113266,
        -0.7331567406654358
      ],
      "type": "VEC3"
    },
    {
      "bufferView": 1,
      "byteOffset": 284136,
      "componentType": 5126,
      "count": 222,
      "max": [
        0.9575030207633972,
        0.9999189972877502
      ],
      "min": [
        0.00021100000594742596,
        0.00015100000018719584
      ],
      "type": "VEC2"
    },
    {
      "bufferView": 0,
      "byteOffset": 749244,
      "componentType": 5125,
      "count": 606,
      "type": "SCALAR"
    },
    {
      "bufferView": 2,
      "byteOffset": 857736,
      "componentType": 5126,
      "count": 214,
      "max": [
        110.1580810546875,
        -26.327301025390625,
        413.5054931640625
      ],
      "min": [
        98.49375915527344,
        -48.491512298583984,
        401.173095703125
      ],
      "type": "VEC3"
    },
    {
      "bufferView": 2,
      "byteOffset": 860304,
      "componentType": 5126,
      "count": 214,
      "max": [
        0.8963270783424377,
        0.46416980028152466,
        0.033601343631744385
      ],
      "min": [
        0.4790251851081848,
        -0.16238141059875488,
        -0.8626512885093689
      ],
      "type": "VEC3"
    },
    {
      "bufferView": 1,
      "byteOffset": 285912,
      "componentType": 5126,
      "count": 214,
      "max": [
        0.9784899950027466,
        0.9997900128364563
      ],
      "min": [
        0.0001289999927394092,
        6.000000212225132e-06
      ],
      "type": "VEC2"
    },
    {
      "bufferView": 0,
      "byteOffset": 751668,
      "componentType": 5125,
      "count": 594,
      "type": "SCALAR"
    },
    {
      "bufferView": 2,
      "byteOffset": 862872,
      "componentType": 5126,
      "count": 7120,
      "max": [
        139.3195037841797,
        -25.688278198242188,
        459.11865234375
      ],
      "min": [
        81.94538879394531,
        -75.41856384277344,
        390.6976318359375
      ],
      "type": "VEC3"
    },
    {
      "bufferView": 2,
      "byteOffset": 948312,
      "componentType": 5126,
      "count": 7120,
      "max": [
        0.999797523021698,
        0.9987138509750366,
        0.9997689127922058
      ],
      "min": [
        -0.9449943900108337,
        -0.9986519813537598,
        -0.9845500588417053
      ],
      "type": "VEC3"
    },
    {
      "bufferView": 1,
      "byteOffset": 287624,
      "componentType": 5126,
      "count": 7120,
      "max": [
        0.6604869961738586,
        0.9987679719924927
      ],
      "min": [
        0.00101500004529953,
        0.04608900099992752
      ],
      "type": "VEC2"
    },
    {
      "bufferView": 0,
      "byteOffset": 754044,
      "componentType": 5125,
      "count": 39552,
      "type": "SCALAR"
    },
    {
      "bufferView": 2,
      "byteOffset": 1033752,
      "componentType": 5126,
      "count": 7761,
      "max": [
        128.64195251464844,
        -78.69908142089844,
        417.4884338378906
      ],
      "min": [
        56.79253005981445,
        -147.67669677734375,
        373.0447998046875
      ],
      "type": "VEC3"
    },
    {
      "bufferView": 2,
      "byteOffset": 1126884,
      "componentType": 5126,
      "count": 7761,
      "max": [
        0.9999521970748901,
        0.9973698854446411,
        0.9999822974205017
      ],
      "min": [
        -0.9999573826789856,
        -0.9991846680641174,
        -0.9998660683631897
      ],
      "type": "VEC3"
    },
    {
      "bufferView": 1,
      "byteOffset": 344584,
      "componentType": 5126,
      "count": 7761,
      "max": [
        0.9999650120735168,
        0.9999769926071167
      ],
      "min": [
        0.00013000000035390258,
        0.19629399478435516
      ],
      "type": "VEC2"
    },
    {
      "bufferView": 0,
      "byteOffset": 912252,
      "componentType": 5125,
      "count": 44376,
      "type": "SCALAR"
    },
    {
      "bufferView": 2,
      "byteOffset": 1220016,
      "componentType": 5126,
      "count": 6064,
      "max": [
        114.97785949707031,
        -80.05750274658203,
        418.77392578125
      ],
      "min": [
        80.28143310546875,
        -140.12191772460938,
        387.92950439453125
      ],
      "type": "VEC3"
    },
    {
      "bufferView": 2,
      "byteOffset": 1292784,
      "componentType": 5126,
      "count": 6064,
      "max": [
        0.9997075200080872,
        0.9961616396903992,
        0.9999328851699829
      ],
      "min": [
        -0.9999337792396545,
        -0.9999933838844299,
        -0.9999416470527649
      ],
      "type": "VEC3"
    },
    {
      "bufferView": 1,
      "byteOffset": 406672,
      "componentType": 5126,
      "count": 6064,
      "max": [
        0.999983012676239,
        0.9999359846115112
      ],
      "min": [
        4.5000000682193786e-05,
        0.20359499752521515
      ],
      "type": "VEC2"
    },
    {
      "bufferView": 0,
      "byteOffset": 1089756,
      "componentType": 5125,
      "count": 34326,
      "type": "SCALAR"
    }
  ],
  "asset": {
    "extras": {
      "author": "threehoursinhell (https://sketchfab.com/threehoursinhell)",
      "license": "CC-BY-4.0 (http://creativecommons.org/licenses/by/4.0/)",
      "source": "https://sketchfab.com/3d-models/pokemon-go-marowak-544b85e4ac944fd1b0e959c1a936b2f9",
      "title": "Pokemon go (Marowak)"
    },
    "generator": "Sketchfab-12.66.0",
    "version": "2.0"
  },
  "bufferViews": [
    {
      "buffer": 0,
      "byteLength": 1227060,
      "name": "floatBufferViews",
      "target": 34963
    },
    {
      "buffer": 0,
      "byteLength": 455184,
      "byteOffset": 1227060,
      "byteStride": 8,
      "name": "floatBufferViews",
      "target": 34962
    },
    {
      "buffer": 0,
      "byteLength": 1365552,
      "byteOffset": 1682244,
      "byteStride": 12,
      "name": "floatBufferViews",
      "target": 34962
    }
  ],
  "buffers": [
    {
      "byteLength": 3047796,
      "uri": "scene.bin"
    }
  ],
  "images": [
    {
      "uri": "textures/143_0_baseColor.png"
    },
    {
      "uri": "textures/145_0_baseColor.png"
    },
    {
      "uri": "textures/149_0_baseColor.png"
    },
    {
      "uri": "textures/157_0_baseColor.png"
    }
  ],
  "materials": [
    {
      "doubleSided": true,
      "name": "143_0",
      "pbrMetallicRoughness": {
        "baseColorTexture": {
          "index": 0
        },
        "metallicFactor": 0.0
      }
    },
    {
      "doubleSided": true,
      "name": "145_0",
      "pbrMetallicRoughness": {
        "baseColorTexture": {
          "index": 1
        },
        "metallicFactor": 0.0,
        "roughnessFactor": 0.6
      }
    },
    {
      "doubleSided": true,
      "name": "147_0",
      "pbrMetallicRoughness": {
        "metallicFactor": 0.0,
        "roughnessFactor": 0.6
      }
    },
    {
      "doubleSided": true,
      "name": "149_0",
      "pbrMetallicRoughness": {
        "baseColorTexture": {
          "index": 2
        },
        "metallicFactor": 0.0,
        "roughnessFactor": 0.6
      }
    },
    {
      "doubleSided": true,
      "name": "151_0",
      "pbrMetallicRoughness": {
        "metallicFactor": 0.0,
        "roughnessFactor": 0.6
      }
    },
    {
      "doubleSided": true,
      "name": "153_0",
      "pbrMetallicRoughness": {
        "baseColorFactor": [
          0.03709710925778361,
          0.031143760592358457,
          0.031143760592358457,
          1.0
        ],
        "metallicFactor": 0.0,
        "roughnessFactor": 0.6
      }
    },
    {
      "doubleSided": true,
      "name": "157_0",
      "pbrMetallicRoughness": {
        "baseColorTexture": {
          "index": 3
        },
        "metallicFactor": 0.0,
        "roughnessFactor": 0.0
      }
    }
  ],
  "meshes": [
    {
      "name": "Object_0",
      "primitives": [
        {
          "attributes": {
            "NORMAL": 1,
            "POSITION": 0,
            "TEXCOORD_0": 2
          },
          "indices": 3,
          "material": 0,
          "mode": 4
        }
      ]
    },
    {
      "name": "Object_1",
      "primitives": [
        {
          "attributes": {
            "NORMAL": 5,
            "POSITION": 4,
            "TEXCOORD_0": 6
          },
          "indices": 7,
          "material": 1,
          "mode": 4
        }
      ]
    },
    {
      "name": "Object_2",
      "primitives": [
        {
          "attributes": {
            "NORMAL": 9,
            "POSITION": 8,
            "TEXCOORD_0": 10
          },
          "indices": 11,
          "material": 4,
          "mode": 4
        }
      ]
    },
    {
      "name": "Object_3",
      "primitives": [
        {
          "attributes": {
            "NORMAL": 13,
            "POSITION": 12,
            "TEXCOORD_0": 14
          },
          "indices": 15,
          "material": 2,
          "mode": 4
        }
      ]
    },
    {
      "name": "Object_4",
      "primitives": [
        {
          "attributes": {
            "NORMAL": 17,
            "POSITION": 16,
            "TEXCOORD_0": 18
          },
          "indices": 19,
          "material": 3,
          "mode": 4
        }
      ]
    },
    {
      "name": "Object_5",
      "primitives": [
        {
          "attributes": {
            "NORMAL": 21,
            "POSITION": 20,
            "TEXCOORD_0": 22
          },
          "indices": 23,
          "material": 6,
          "mode": 4
        }
      ]
    },
    {
      "name": "Object_6",
      "primitives": [
        {
          "attributes": {
            "NORMAL": 25,
            "POSITION": 24,
            "TEXCOORD_0": 26
          },
          "indices": 27,
          "material": 5,
          "mode": 4
        }
      ]
    }
  ],
  "nodes": [
    {
      "children": [
        1
      ],
      "matrix": [
        0.9834389686584473,
        8.187666637110363e-17,
        -0.18123972415924072,
        0.0,
        -0.034738313406705856,
        -0.9814593195915222,
        -0.1884962618350985,
        0.0,
        -0.1778794229030609,
        0.1916705369949343,
        -0.9652053117752075,
        0.0,
        71.82234191894531,
        235.88558959960926,
        489.49667358398443,
        1.0
      ],
      "name": "Sketchfab_model"
    },
    {
      "children": [
        2,
        3,
        4,
        5,
        6,
        7,
        8
      ],
      "name": "pokemon.obj.cleaner.materialmerger.gles"
    },
    {
      "mesh": 0,
      "name": "Object_2"
    },
    {
      "mesh": 1,
      "name": "Object_3"
    },
    {
      "mesh": 2,
      "name": "Object_4"
    },
    {
      "mesh": 3,
      "name": "Object_5"
    },
    {
      "mesh": 4,
      "name": "Object_6"
    },
    {
      "mesh": 5,
      "name": "Object_7"
    },
    {
      "mesh": 6,
      "name": "Object_8"
    }
  ],
  "samplers": [
    {
      "magFilter": 9729,
      "minFilter": 9987,
      "wrapS": 10497,
      "wrapT": 10497
    }
  ],
  "scene": 0,
  "scenes": [
    {
      "name": "Sketchfab_Scene",
      "nodes": [
        0
      ]
    }
  ],
  "textures": [
    {
      "sampler": 0,
      "source": 0
    },
    {
      "sampler": 0,
      "source": 1
    },
    {
      "sampler": 0,
      "source": 2
    },
    {
      "sampler": 0,
      "source": 3
    }
  ]
}
